solid OpenSCAD_Model
  facet normal -0 -0 -1
    outer loop
      vertex -2.88377 0.042737 0
      vertex -2.88377 1.95726 0
      vertex -1.99404 -1.65249 0
    endloop
  endfacet
  facet normal 0 0 -1
    outer loop
      vertex -1.99404 -1.65249 0
      vertex -2.88377 1.95726 0
      vertex -1.99404 3.65249 0
    endloop
  endfacet
  facet normal 0 -0 -1
    outer loop
      vertex -1.99404 -1.65249 0
      vertex -1.99404 3.65249 0
      vertex -0.41842 4.74006 0
    endloop
  endfacet
  facet normal 0 0 -1
    outer loop
      vertex -1.99404 -1.65249 0
      vertex -0.41842 4.74006 0
      vertex 0 4.79087 0
    endloop
  endfacet
  facet normal 0 0 -1
    outer loop
      vertex 0 59.2091 0
      vertex -0.41842 59.2599 0
      vertex -1.99404 60.3475 0
    endloop
  endfacet
  facet normal 0 0 -1
    outer loop
      vertex 0 59.2091 0
      vertex -1.99404 60.3475 0
      vertex -2.88377 62.0427 0
    endloop
  endfacet
  facet normal 0 0 -1
    outer loop
      vertex 0 59.2091 0
      vertex -2.88377 62.0427 0
      vertex -2.88377 63.9573 0
    endloop
  endfacet
  facet normal 0 0 -1
    outer loop
      vertex 0 59.2091 0
      vertex -2.88377 63.9573 0
      vertex -1.99404 65.6525 0
    endloop
  endfacet
  facet normal 0 -0 -1
    outer loop
      vertex -0.8 63 0
      vertex -1.99404 65.6525 0
      vertex -0.41842 66.7401 0
    endloop
  endfacet
  facet normal 0 -0 -1
    outer loop
      vertex 0.1 64.5588 0
      vertex -0.41842 66.7401 0
      vertex 1.48215 66.9708 0
    endloop
  endfacet
  facet normal 0 -0 -1
    outer loop
      vertex 1.9 64.5588 0
      vertex 1.48215 66.9708 0
      vertex 3.27226 66.2919 0
    endloop
  endfacet
  facet normal 0 0 -1
    outer loop
      vertex 0 4.79087 0
      vertex 3.27226 66.2919 0
      vertex 4.41681 65 0
    endloop
  endfacet
  facet normal 0 -0 -1
    outer loop
      vertex 10 55 0
      vertex 4.41681 65 0
      vertex 89.6635 65 0
    endloop
  endfacet
  facet normal 0 0 -1
    outer loop
      vertex 89.6635 65 0
      vertex 90.006 65.6525 0
      vertex 91.5816 66.7401 0
    endloop
  endfacet
  facet normal 0 0 -1
    outer loop
      vertex 89.6635 65 0
      vertex 91.5816 66.7401 0
      vertex 93.4821 66.9708 0
    endloop
  endfacet
  facet normal 0 0 -1
    outer loop
      vertex 85 10 0
      vertex 1.9 2.55885 0
      vertex 0.1 2.55885 0
    endloop
  endfacet
  facet normal 0 0 -1
    outer loop
      vertex 92.1 64.5588 0
      vertex 93.4821 66.9708 0
      vertex 95.2723 66.2919 0
    endloop
  endfacet
  facet normal 0 0 -1
    outer loop
      vertex 93.9 64.5588 0
      vertex 95.2723 66.2919 0
      vertex 96.5418 64.8589 0
    endloop
  endfacet
  facet normal -0 0 -1
    outer loop
      vertex 94.8 63 0
      vertex 96.5418 64.8589 0
      vertex 97 63 0
    endloop
  endfacet
  facet normal 0 0 -1
    outer loop
      vertex 85 55 0
      vertex 97 63 0
      vertex 96.5418 61.1411 0
    endloop
  endfacet
  facet normal 0 0 -1
    outer loop
      vertex 95 59.6048 0
      vertex 96.5418 61.1411 0
      vertex 95.2723 59.7081 0
    endloop
  endfacet
  facet normal 0 0 -1
    outer loop
      vertex 1.9 61.4412 0
      vertex 0 59.2091 0
      vertex 0.1 61.4412 0
    endloop
  endfacet
  facet normal 0 0 -1
    outer loop
      vertex 90.006 -1.65249 0
      vertex 95.2723 -2.29194 0
      vertex 91.5816 -2.74006 0
    endloop
  endfacet
  facet normal -0 0 -1
    outer loop
      vertex 90.006 -1.65249 0
      vertex 96.5418 -0.858893 0
      vertex 95.2723 -2.29194 0
    endloop
  endfacet
  facet normal -0 0 -1
    outer loop
      vertex 91.5816 -2.74006 0
      vertex 95.2723 -2.29194 0
      vertex 93.4821 -2.97083 0
    endloop
  endfacet
  facet normal 0 0 -1
    outer loop
      vertex 89.1387 0 0
      vertex 92.1 -0.558846 0
      vertex 90.006 -1.65249 0
    endloop
  endfacet
  facet normal 0 0 -1
    outer loop
      vertex 4.75352 0 0
      vertex 96.5418 2.85889 0
      vertex 92.1 2.55885 0
    endloop
  endfacet
  facet normal 0 0 -1
    outer loop
      vertex 92.1 -0.558846 0
      vertex 96.5418 -0.858893 0
      vertex 90.006 -1.65249 0
    endloop
  endfacet
  facet normal 0 -0 -1
    outer loop
      vertex 3.27226 -2.29194 0
      vertex -1.99404 -1.65249 0
      vertex 4.54182 -0.858893 0
    endloop
  endfacet
  facet normal 0 0 -1
    outer loop
      vertex -1.99404 -1.65249 0
      vertex 4.75352 0 0
      vertex 4.54182 -0.858893 0
    endloop
  endfacet
  facet normal 0 0 -1
    outer loop
      vertex 0.1 -0.558846 0
      vertex -1.99404 -1.65249 0
      vertex -0.8 1 0
    endloop
  endfacet
  facet normal 0 0 -1
    outer loop
      vertex -1.99404 -1.65249 0
      vertex 3.27226 -2.29194 0
      vertex 1.48215 -2.97083 0
    endloop
  endfacet
  facet normal 0 0 -1
    outer loop
      vertex -1.99404 -1.65249 0
      vertex 1.48215 -2.97083 0
      vertex -0.41842 -2.74006 0
    endloop
  endfacet
  facet normal 0 0 -1
    outer loop
      vertex -0.8 63 0
      vertex -0.41842 66.7401 0
      vertex 0.1 64.5588 0
    endloop
  endfacet
  facet normal 0 0 -1
    outer loop
      vertex 0 4.79087 0
      vertex -0.8 1 0
      vertex -1.99404 -1.65249 0
    endloop
  endfacet
  facet normal 0 -0 -1
    outer loop
      vertex 89.1387 0 0
      vertex 4.75352 0 0
      vertex 91.2 1 0
    endloop
  endfacet
  facet normal 0 0 -1
    outer loop
      vertex -1.99404 -1.65249 0
      vertex 0.1 -0.558846 0
      vertex 1.9 -0.558846 0
    endloop
  endfacet
  facet normal 0 0 -1
    outer loop
      vertex -1.99404 -1.65249 0
      vertex 1.9 -0.558846 0
      vertex 4.75352 0 0
    endloop
  endfacet
  facet normal 0 0 -1
    outer loop
      vertex 92.1 -0.558846 0
      vertex 89.1387 0 0
      vertex 91.2 1 0
    endloop
  endfacet
  facet normal 0 -0 -1
    outer loop
      vertex 91.2 1 0
      vertex 4.75352 0 0
      vertex 92.1 2.55885 0
    endloop
  endfacet
  facet normal 0 0 -1
    outer loop
      vertex 1.9 61.4412 0
      vertex 0 4.79087 0
      vertex 0 59.2091 0
    endloop
  endfacet
  facet normal 0 0 -1
    outer loop
      vertex 85 10 0
      vertex 0.1 2.55885 0
      vertex 10 10 0
    endloop
  endfacet
  facet normal 0 0 -1
    outer loop
      vertex 0 4.79087 0
      vertex 0.1 2.55885 0
      vertex -0.8 1 0
    endloop
  endfacet
  facet normal 0 0 -1
    outer loop
      vertex 0 59.2091 0
      vertex -1.99404 65.6525 0
      vertex -0.8 63 0
    endloop
  endfacet
  facet normal 0 0 -1
    outer loop
      vertex 0.1 61.4412 0
      vertex 0 59.2091 0
      vertex -0.8 63 0
    endloop
  endfacet
  facet normal -0 0 -1
    outer loop
      vertex 1.9 64.5588 0
      vertex 3.27226 66.2919 0
      vertex 2.8 63 0
    endloop
  endfacet
  facet normal 0 0 -1
    outer loop
      vertex 0 4.79087 0
      vertex 1.9 61.4412 0
      vertex 2.8 63 0
    endloop
  endfacet
  facet normal 0 0 -1
    outer loop
      vertex 0 4.79087 0
      vertex 2.8 63 0
      vertex 3.27226 66.2919 0
    endloop
  endfacet
  facet normal -0 0 -1
    outer loop
      vertex 0.1 64.5588 0
      vertex 1.48215 66.9708 0
      vertex 1.9 64.5588 0
    endloop
  endfacet
  facet normal 0 0 -1
    outer loop
      vertex 10 55 0
      vertex 89.6635 65 0
      vertex 92.1 64.5588 0
    endloop
  endfacet
  facet normal -0 0 -1
    outer loop
      vertex 89.6635 65 0
      vertex 93.4821 66.9708 0
      vertex 92.1 64.5588 0
    endloop
  endfacet
  facet normal 0 0 -1
    outer loop
      vertex 0 4.79087 0
      vertex 4.41681 65 0
      vertex 10 55 0
    endloop
  endfacet
  facet normal 0 0 -1
    outer loop
      vertex 10 10 0
      vertex 0 4.79087 0
      vertex 10 55 0
    endloop
  endfacet
  facet normal -0 0 -1
    outer loop
      vertex 0 4.79087 0
      vertex 10 10 0
      vertex 0.1 2.55885 0
    endloop
  endfacet
  facet normal 0 0 -1
    outer loop
      vertex 94.8 1 0
      vertex 97 1 0
      vertex 96.5418 -0.858893 0
    endloop
  endfacet
  facet normal 0 0 -1
    outer loop
      vertex 4.75352 0 0
      vertex 85 10 0
      vertex 95 4.39519 0
    endloop
  endfacet
  facet normal 0 0 -1
    outer loop
      vertex 10 55 0
      vertex 92.1 64.5588 0
      vertex 91.2 63 0
    endloop
  endfacet
  facet normal 0 0 -1
    outer loop
      vertex 94.8 63 0
      vertex 97 63 0
      vertex 93.9 61.4412 0
    endloop
  endfacet
  facet normal -0 0 -1
    outer loop
      vertex 94.8 1 0
      vertex 96.5418 2.85889 0
      vertex 97 1 0
    endloop
  endfacet
  facet normal 0 0 -1
    outer loop
      vertex 4.75352 0 0
      vertex 95 4.39519 0
      vertex 95.2723 4.29193 0
    endloop
  endfacet
  facet normal 0 0 -1
    outer loop
      vertex 4.75352 0 0
      vertex 95.2723 4.29193 0
      vertex 96.5418 2.85889 0
    endloop
  endfacet
  facet normal 0 0 -1
    outer loop
      vertex 94.8 1 0
      vertex 96.5418 -0.858893 0
      vertex 93.9 -0.558846 0
    endloop
  endfacet
  facet normal 0 0 -1
    outer loop
      vertex 92.1 -0.558846 0
      vertex 93.9 -0.558846 0
      vertex 96.5418 -0.858893 0
    endloop
  endfacet
  facet normal -0 0 -1
    outer loop
      vertex 92.1 2.55885 0
      vertex 96.5418 2.85889 0
      vertex 93.9 2.55885 0
    endloop
  endfacet
  facet normal -0 0 -1
    outer loop
      vertex 10 55 0
      vertex 93.9 61.4412 0
      vertex 85 55 0
    endloop
  endfacet
  facet normal -0 0 -1
    outer loop
      vertex 93.9 61.4412 0
      vertex 97 63 0
      vertex 85 55 0
    endloop
  endfacet
  facet normal 0 0 -1
    outer loop
      vertex 10 55 0
      vertex 92.1 61.4412 0
      vertex 93.9 61.4412 0
    endloop
  endfacet
  facet normal 0 0 -1
    outer loop
      vertex 10 55 0
      vertex 91.2 63 0
      vertex 92.1 61.4412 0
    endloop
  endfacet
  facet normal -0 0 -1
    outer loop
      vertex 93.9 64.5588 0
      vertex 96.5418 64.8589 0
      vertex 94.8 63 0
    endloop
  endfacet
  facet normal -0 0 -1
    outer loop
      vertex 92.1 64.5588 0
      vertex 95.2723 66.2919 0
      vertex 93.9 64.5588 0
    endloop
  endfacet
  facet normal 0 0 -1
    outer loop
      vertex 85 10 0
      vertex 2.8 1 0
      vertex 1.9 2.55885 0
    endloop
  endfacet
  facet normal 0 0 -1
    outer loop
      vertex 85 10 0
      vertex 4.75352 0 0
      vertex 2.8 1 0
    endloop
  endfacet
  facet normal 0 0 -1
    outer loop
      vertex 2.8 1 0
      vertex 4.75352 0 0
      vertex 1.9 -0.558846 0
    endloop
  endfacet
  facet normal 0 0 -1
    outer loop
      vertex 85 55 0
      vertex 96.5418 61.1411 0
      vertex 95 59.6048 0
    endloop
  endfacet
  facet normal 0 0 -1
    outer loop
      vertex 95 4.39519 0
      vertex 85 10 0
      vertex 95 59.6048 0
    endloop
  endfacet
  facet normal -0 0 -1
    outer loop
      vertex 93.9 2.55885 0
      vertex 96.5418 2.85889 0
      vertex 94.8 1 0
    endloop
  endfacet
  facet normal -0 0 -1
    outer loop
      vertex 85 55 0
      vertex 95 59.6048 0
      vertex 85 10 0
    endloop
  endfacet
  facet normal -1 -0 -0
    outer loop
      vertex -2.88377 0.042737 0
      vertex -2.88377 0.042737 1.5
      vertex -2.88377 1.95726 0
    endloop
  endfacet
  facet normal -1 0 0
    outer loop
      vertex -2.88377 1.95726 0
      vertex -2.88377 0.042737 1.5
      vertex -2.88377 1.95726 1.5
    endloop
  endfacet
  facet normal -0.885456 -0.464723 -0
    outer loop
      vertex -2.88377 0.042737 0
      vertex -1.99404 -1.65249 0
      vertex -2.88377 0.042737 1.5
    endloop
  endfacet
  facet normal -0.885456 -0.464723 0
    outer loop
      vertex -2.88377 0.042737 1.5
      vertex -1.99404 -1.65249 0
      vertex -1.99404 -1.65249 1.5
    endloop
  endfacet
  facet normal -0.568065 -0.822984 0
    outer loop
      vertex -1.99404 -1.65249 1.5
      vertex -1.99404 -1.65249 0
      vertex -0.41842 -2.74006 0
    endloop
  endfacet
  facet normal -0.568065 -0.822984 0
    outer loop
      vertex -0.41842 -2.74006 1.5
      vertex -1.99404 -1.65249 1.5
      vertex -0.41842 -2.74006 0
    endloop
  endfacet
  facet normal -0.120536 -0.992709 0
    outer loop
      vertex -0.41842 -2.74006 1.5
      vertex -0.41842 -2.74006 0
      vertex 1.48215 -2.97083 0
    endloop
  endfacet
  facet normal -0.120536 -0.992709 0
    outer loop
      vertex 1.48215 -2.97083 1.5
      vertex -0.41842 -2.74006 1.5
      vertex 1.48215 -2.97083 0
    endloop
  endfacet
  facet normal 0.354605 -0.935016 0
    outer loop
      vertex 1.48215 -2.97083 1.5
      vertex 1.48215 -2.97083 0
      vertex 3.27226 -2.29194 0
    endloop
  endfacet
  facet normal 0.354605 -0.935016 0
    outer loop
      vertex 3.27226 -2.29194 1.5
      vertex 1.48215 -2.97083 1.5
      vertex 3.27226 -2.29194 0
    endloop
  endfacet
  facet normal 0.748511 -0.663123 0
    outer loop
      vertex 3.27226 -2.29194 1.5
      vertex 3.27226 -2.29194 0
      vertex 4.54182 -0.858893 0
    endloop
  endfacet
  facet normal 0.748511 -0.663123 0
    outer loop
      vertex 4.54182 -0.858893 1.5
      vertex 3.27226 -2.29194 1.5
      vertex 4.54182 -0.858893 0
    endloop
  endfacet
  facet normal 0.970942 -0.239316 0
    outer loop
      vertex 4.54182 -0.858893 1.5
      vertex 4.54182 -0.858893 0
      vertex 4.75352 0 0
    endloop
  endfacet
  facet normal 0.970942 -0.239316 0
    outer loop
      vertex 4.75352 0 1.5
      vertex 4.54182 -0.858893 1.5
      vertex 4.75352 0 0
    endloop
  endfacet
  facet normal 0 -1 0
    outer loop
      vertex 4.75352 0 1.5
      vertex 4.75352 0 0
      vertex 89.1387 0 0
    endloop
  endfacet
  facet normal 0 -1 0
    outer loop
      vertex 5.28744 0 1.5
      vertex 4.75352 0 1.5
      vertex 89.1387 0 0
    endloop
  endfacet
  facet normal 0 -1 0
    outer loop
      vertex 88.627 0 1.5
      vertex 5.28744 0 1.5
      vertex 89.1387 0 0
    endloop
  endfacet
  facet normal 0 -1 0
    outer loop
      vertex 89.1387 0 1.5
      vertex 88.627 0 1.5
      vertex 89.1387 0 0
    endloop
  endfacet
  facet normal 0 -1 0
    outer loop
      vertex 88.627 0 3
      vertex 5.28744 0 1.5
      vertex 88.627 0 1.5
    endloop
  endfacet
  facet normal 0 -1 0
    outer loop
      vertex 5.28744 0 3
      vertex 5.28744 0 1.5
      vertex 88.627 0 3
    endloop
  endfacet
  facet normal -0.885456 -0.464723 -0
    outer loop
      vertex 89.1387 0 0
      vertex 90.006 -1.65249 0
      vertex 89.1387 0 1.5
    endloop
  endfacet
  facet normal -0.885456 -0.464723 0
    outer loop
      vertex 89.1387 0 1.5
      vertex 90.006 -1.65249 0
      vertex 90.006 -1.65249 1.5
    endloop
  endfacet
  facet normal -0.568065 -0.822984 0
    outer loop
      vertex 90.006 -1.65249 1.5
      vertex 90.006 -1.65249 0
      vertex 91.5816 -2.74006 0
    endloop
  endfacet
  facet normal -0.568065 -0.822984 0
    outer loop
      vertex 91.5816 -2.74006 1.5
      vertex 90.006 -1.65249 1.5
      vertex 91.5816 -2.74006 0
    endloop
  endfacet
  facet normal -0.120536 -0.992709 0
    outer loop
      vertex 91.5816 -2.74006 1.5
      vertex 91.5816 -2.74006 0
      vertex 93.4821 -2.97083 0
    endloop
  endfacet
  facet normal -0.120536 -0.992709 0
    outer loop
      vertex 93.4821 -2.97083 1.5
      vertex 91.5816 -2.74006 1.5
      vertex 93.4821 -2.97083 0
    endloop
  endfacet
  facet normal 0.354605 -0.935016 0
    outer loop
      vertex 93.4821 -2.97083 1.5
      vertex 93.4821 -2.97083 0
      vertex 95.2723 -2.29194 0
    endloop
  endfacet
  facet normal 0.354605 -0.935016 0
    outer loop
      vertex 95.2723 -2.29194 1.5
      vertex 93.4821 -2.97083 1.5
      vertex 95.2723 -2.29194 0
    endloop
  endfacet
  facet normal 0.748511 -0.663123 0
    outer loop
      vertex 95.2723 -2.29194 1.5
      vertex 95.2723 -2.29194 0
      vertex 96.5418 -0.858893 0
    endloop
  endfacet
  facet normal 0.748511 -0.663123 0
    outer loop
      vertex 96.5418 -0.858893 1.5
      vertex 95.2723 -2.29194 1.5
      vertex 96.5418 -0.858893 0
    endloop
  endfacet
  facet normal 0.970942 -0.239316 0
    outer loop
      vertex 96.5418 -0.858893 1.5
      vertex 96.5418 -0.858893 0
      vertex 97 1 0
    endloop
  endfacet
  facet normal 0.970942 -0.239316 0
    outer loop
      vertex 97 1 1.5
      vertex 96.5418 -0.858893 1.5
      vertex 97 1 0
    endloop
  endfacet
  facet normal 0.970942 0.239316 0
    outer loop
      vertex 97 1 0
      vertex 96.5418 2.85889 0
      vertex 96.5418 2.85889 1.5
    endloop
  endfacet
  facet normal 0.970942 0.239316 -0
    outer loop
      vertex 97 1 1.5
      vertex 97 1 0
      vertex 96.5418 2.85889 1.5
    endloop
  endfacet
  facet normal 0.748511 0.663123 0
    outer loop
      vertex 96.5418 2.85889 0
      vertex 95.2723 4.29193 0
      vertex 95.2723 4.29193 1.5
    endloop
  endfacet
  facet normal 0.748511 0.663123 -0
    outer loop
      vertex 96.5418 2.85889 1.5
      vertex 96.5418 2.85889 0
      vertex 95.2723 4.29193 1.5
    endloop
  endfacet
  facet normal 0.354605 0.935016 0
    outer loop
      vertex 95 4.39519 0
      vertex 95 4.39519 1.5
      vertex 95.2723 4.29193 0
    endloop
  endfacet
  facet normal 0.354605 0.935016 0
    outer loop
      vertex 95.2723 4.29193 0
      vertex 95 4.39519 1.5
      vertex 95.2723 4.29193 1.5
    endloop
  endfacet
  facet normal 1 0 -0
    outer loop
      vertex 95 4.39519 1.5
      vertex 95 4.39519 0
      vertex 95 59.6048 0
    endloop
  endfacet
  facet normal 1 0 -0
    outer loop
      vertex 95 4.9279 1.5
      vertex 95 4.39519 1.5
      vertex 95 59.6048 0
    endloop
  endfacet
  facet normal 1 0 -0
    outer loop
      vertex 95 59.0721 1.5
      vertex 95 4.9279 1.5
      vertex 95 59.6048 0
    endloop
  endfacet
  facet normal 1 0 0
    outer loop
      vertex 95 59.6048 1.5
      vertex 95 59.0721 1.5
      vertex 95 59.6048 0
    endloop
  endfacet
  facet normal 1 0 0
    outer loop
      vertex 95 59.0721 3
      vertex 95 4.9279 1.5
      vertex 95 59.0721 1.5
    endloop
  endfacet
  facet normal 1 0 -0
    outer loop
      vertex 95 4.9279 3
      vertex 95 4.9279 1.5
      vertex 95 59.0721 3
    endloop
  endfacet
  facet normal 0.354605 -0.935016 0
    outer loop
      vertex 95 59.6048 1.5
      vertex 95 59.6048 0
      vertex 95.2723 59.7081 0
    endloop
  endfacet
  facet normal 0.354605 -0.935016 0
    outer loop
      vertex 95.2723 59.7081 1.5
      vertex 95 59.6048 1.5
      vertex 95.2723 59.7081 0
    endloop
  endfacet
  facet normal 0.748511 -0.663123 0
    outer loop
      vertex 95.2723 59.7081 1.5
      vertex 95.2723 59.7081 0
      vertex 96.5418 61.1411 0
    endloop
  endfacet
  facet normal 0.748511 -0.663123 0
    outer loop
      vertex 96.5418 61.1411 1.5
      vertex 95.2723 59.7081 1.5
      vertex 96.5418 61.1411 0
    endloop
  endfacet
  facet normal 0.970942 -0.239316 0
    outer loop
      vertex 96.5418 61.1411 1.5
      vertex 96.5418 61.1411 0
      vertex 97 63 0
    endloop
  endfacet
  facet normal 0.970942 -0.239316 0
    outer loop
      vertex 97 63 1.5
      vertex 96.5418 61.1411 1.5
      vertex 97 63 0
    endloop
  endfacet
  facet normal 0.970942 0.239316 0
    outer loop
      vertex 97 63 0
      vertex 96.5418 64.8589 0
      vertex 96.5418 64.8589 1.5
    endloop
  endfacet
  facet normal 0.970942 0.239316 -0
    outer loop
      vertex 97 63 1.5
      vertex 97 63 0
      vertex 96.5418 64.8589 1.5
    endloop
  endfacet
  facet normal 0.748511 0.663123 0
    outer loop
      vertex 96.5418 64.8589 0
      vertex 95.2723 66.2919 0
      vertex 95.2723 66.2919 1.5
    endloop
  endfacet
  facet normal 0.748511 0.663123 -0
    outer loop
      vertex 96.5418 64.8589 1.5
      vertex 96.5418 64.8589 0
      vertex 95.2723 66.2919 1.5
    endloop
  endfacet
  facet normal 0.354605 0.935016 0
    outer loop
      vertex 93.4821 66.9708 0
      vertex 93.4821 66.9708 1.5
      vertex 95.2723 66.2919 0
    endloop
  endfacet
  facet normal 0.354605 0.935016 0
    outer loop
      vertex 95.2723 66.2919 0
      vertex 93.4821 66.9708 1.5
      vertex 95.2723 66.2919 1.5
    endloop
  endfacet
  facet normal -0.120536 0.992709 0
    outer loop
      vertex 91.5816 66.7401 0
      vertex 91.5816 66.7401 1.5
      vertex 93.4821 66.9708 0
    endloop
  endfacet
  facet normal -0.120536 0.992709 0
    outer loop
      vertex 93.4821 66.9708 0
      vertex 91.5816 66.7401 1.5
      vertex 93.4821 66.9708 1.5
    endloop
  endfacet
  facet normal -0.568065 0.822984 0
    outer loop
      vertex 90.006 65.6525 0
      vertex 90.006 65.6525 1.5
      vertex 91.5816 66.7401 0
    endloop
  endfacet
  facet normal -0.568065 0.822984 0
    outer loop
      vertex 91.5816 66.7401 0
      vertex 90.006 65.6525 1.5
      vertex 91.5816 66.7401 1.5
    endloop
  endfacet
  facet normal -0.885456 0.464723 0
    outer loop
      vertex 89.6635 65 0
      vertex 89.6635 65 1.5
      vertex 90.006 65.6525 0
    endloop
  endfacet
  facet normal -0.885456 0.464723 0
    outer loop
      vertex 90.006 65.6525 0
      vertex 89.6635 65 1.5
      vertex 90.006 65.6525 1.5
    endloop
  endfacet
  facet normal 0 1 0
    outer loop
      vertex 4.41681 65 0
      vertex 4.41681 65 1.5
      vertex 89.6635 65 0
    endloop
  endfacet
  facet normal 0 1 0
    outer loop
      vertex 89.6635 65 0
      vertex 4.41681 65 1.5
      vertex 4.98767 65 1.5
    endloop
  endfacet
  facet normal 0 1 0
    outer loop
      vertex 89.6635 65 0
      vertex 4.98767 65 1.5
      vertex 4.98767 65 3
    endloop
  endfacet
  facet normal 0 1 0
    outer loop
      vertex 89.0722 65 1.5
      vertex 4.98767 65 3
      vertex 89.0722 65 3
    endloop
  endfacet
  facet normal 0 1 0
    outer loop
      vertex 89.6635 65 0
      vertex 4.98767 65 3
      vertex 89.0722 65 1.5
    endloop
  endfacet
  facet normal 0 1 0
    outer loop
      vertex 89.6635 65 1.5
      vertex 89.6635 65 0
      vertex 89.0722 65 1.5
    endloop
  endfacet
  facet normal 0.748511 0.663123 0
    outer loop
      vertex 4.41681 65 0
      vertex 3.27226 66.2919 0
      vertex 3.27226 66.2919 1.5
    endloop
  endfacet
  facet normal 0.748511 0.663123 -0
    outer loop
      vertex 4.41681 65 1.5
      vertex 4.41681 65 0
      vertex 3.27226 66.2919 1.5
    endloop
  endfacet
  facet normal 0.354605 0.935016 0
    outer loop
      vertex 1.48215 66.9708 0
      vertex 1.48215 66.9708 1.5
      vertex 3.27226 66.2919 0
    endloop
  endfacet
  facet normal 0.354605 0.935016 0
    outer loop
      vertex 3.27226 66.2919 0
      vertex 1.48215 66.9708 1.5
      vertex 3.27226 66.2919 1.5
    endloop
  endfacet
  facet normal -0.120536 0.992709 0
    outer loop
      vertex -0.41842 66.7401 0
      vertex -0.41842 66.7401 1.5
      vertex 1.48215 66.9708 0
    endloop
  endfacet
  facet normal -0.120536 0.992709 0
    outer loop
      vertex 1.48215 66.9708 0
      vertex -0.41842 66.7401 1.5
      vertex 1.48215 66.9708 1.5
    endloop
  endfacet
  facet normal -0.568065 0.822984 0
    outer loop
      vertex -1.99404 65.6525 0
      vertex -1.99404 65.6525 1.5
      vertex -0.41842 66.7401 0
    endloop
  endfacet
  facet normal -0.568065 0.822984 0
    outer loop
      vertex -0.41842 66.7401 0
      vertex -1.99404 65.6525 1.5
      vertex -0.41842 66.7401 1.5
    endloop
  endfacet
  facet normal -0.885456 0.464723 0
    outer loop
      vertex -2.88377 63.9573 0
      vertex -2.88377 63.9573 1.5
      vertex -1.99404 65.6525 0
    endloop
  endfacet
  facet normal -0.885456 0.464723 0
    outer loop
      vertex -1.99404 65.6525 0
      vertex -2.88377 63.9573 1.5
      vertex -1.99404 65.6525 1.5
    endloop
  endfacet
  facet normal -1 -0 -0
    outer loop
      vertex -2.88377 62.0427 0
      vertex -2.88377 62.0427 1.5
      vertex -2.88377 63.9573 0
    endloop
  endfacet
  facet normal -1 0 0
    outer loop
      vertex -2.88377 63.9573 0
      vertex -2.88377 62.0427 1.5
      vertex -2.88377 63.9573 1.5
    endloop
  endfacet
  facet normal -0.885456 -0.464723 -0
    outer loop
      vertex -2.88377 62.0427 0
      vertex -1.99404 60.3475 0
      vertex -2.88377 62.0427 1.5
    endloop
  endfacet
  facet normal -0.885456 -0.464723 0
    outer loop
      vertex -2.88377 62.0427 1.5
      vertex -1.99404 60.3475 0
      vertex -1.99404 60.3475 1.5
    endloop
  endfacet
  facet normal -0.568065 -0.822984 0
    outer loop
      vertex -1.99404 60.3475 1.5
      vertex -1.99404 60.3475 0
      vertex -0.41842 59.2599 0
    endloop
  endfacet
  facet normal -0.568065 -0.822984 0
    outer loop
      vertex -0.41842 59.2599 1.5
      vertex -1.99404 60.3475 1.5
      vertex -0.41842 59.2599 0
    endloop
  endfacet
  facet normal -0.120536 -0.992709 0
    outer loop
      vertex -0.41842 59.2599 1.5
      vertex -0.41842 59.2599 0
      vertex 0 59.2091 0
    endloop
  endfacet
  facet normal -0.120536 -0.992709 0
    outer loop
      vertex 0 59.2091 1.5
      vertex -0.41842 59.2599 1.5
      vertex 0 59.2091 0
    endloop
  endfacet
  facet normal -1 -0 -0
    outer loop
      vertex 0 4.79087 0
      vertex 0 4.79087 1.5
      vertex 0 59.2091 0
    endloop
  endfacet
  facet normal -1 0 0
    outer loop
      vertex 0 59.2091 0
      vertex 0 4.79087 1.5
      vertex 0 5.30326 1.5
    endloop
  endfacet
  facet normal -1 0 0
    outer loop
      vertex 0 59.2091 0
      vertex 0 5.30326 1.5
      vertex 0 5.30326 3
    endloop
  endfacet
  facet normal -1 0 0
    outer loop
      vertex 0 58.6967 1.5
      vertex 0 5.30326 3
      vertex 0 58.6967 3
    endloop
  endfacet
  facet normal -1 0 0
    outer loop
      vertex 0 59.2091 0
      vertex 0 5.30326 3
      vertex 0 58.6967 1.5
    endloop
  endfacet
  facet normal -1 0 0
    outer loop
      vertex 0 59.2091 1.5
      vertex 0 59.2091 0
      vertex 0 58.6967 1.5
    endloop
  endfacet
  facet normal -0.120536 0.992709 0
    outer loop
      vertex -0.41842 4.74006 0
      vertex -0.41842 4.74006 1.5
      vertex 0 4.79087 0
    endloop
  endfacet
  facet normal -0.120536 0.992709 0
    outer loop
      vertex 0 4.79087 0
      vertex -0.41842 4.74006 1.5
      vertex 0 4.79087 1.5
    endloop
  endfacet
  facet normal -0.568065 0.822984 0
    outer loop
      vertex -1.99404 3.65249 0
      vertex -1.99404 3.65249 1.5
      vertex -0.41842 4.74006 0
    endloop
  endfacet
  facet normal -0.568065 0.822984 0
    outer loop
      vertex -0.41842 4.74006 0
      vertex -1.99404 3.65249 1.5
      vertex -0.41842 4.74006 1.5
    endloop
  endfacet
  facet normal -0.885456 0.464723 0
    outer loop
      vertex -2.88377 1.95726 0
      vertex -2.88377 1.95726 1.5
      vertex -1.99404 3.65249 0
    endloop
  endfacet
  facet normal -0.885456 0.464723 0
    outer loop
      vertex -1.99404 3.65249 0
      vertex -2.88377 1.95726 1.5
      vertex -1.99404 3.65249 1.5
    endloop
  endfacet
  facet normal 0.866025 -0.5 0
    outer loop
      vertex 0.1 2.55885 0
      vertex 0.1 2.55885 1.5
      vertex -0.8 1 1.5
    endloop
  endfacet
  facet normal 0.866025 -0.5 0
    outer loop
      vertex -0.8 1 0
      vertex 0.1 2.55885 0
      vertex -0.8 1 1.5
    endloop
  endfacet
  facet normal 0.866025 0.5 0
    outer loop
      vertex -0.8 1 1.5
      vertex 0.1 -0.558846 1.5
      vertex 0.1 -0.558846 0
    endloop
  endfacet
  facet normal 0.866025 0.5 0
    outer loop
      vertex -0.8 1 0
      vertex -0.8 1 1.5
      vertex 0.1 -0.558846 0
    endloop
  endfacet
  facet normal 0 -1 0
    outer loop
      vertex 1.9 2.55885 0
      vertex 1.9 2.55885 1.5
      vertex 0.1 2.55885 1.5
    endloop
  endfacet
  facet normal -0 -1 -0
    outer loop
      vertex 0.1 2.55885 0
      vertex 1.9 2.55885 0
      vertex 0.1 2.55885 1.5
    endloop
  endfacet
  facet normal -0.866025 -0.5 0
    outer loop
      vertex 2.8 1 1.5
      vertex 1.9 2.55885 1.5
      vertex 2.8 1 0
    endloop
  endfacet
  facet normal -0.866025 -0.5 0
    outer loop
      vertex 2.8 1 0
      vertex 1.9 2.55885 1.5
      vertex 1.9 2.55885 0
    endloop
  endfacet
  facet normal -0.866025 0.5 0
    outer loop
      vertex 2.8 1 1.5
      vertex 2.8 1 0
      vertex 1.9 -0.558846 1.5
    endloop
  endfacet
  facet normal -0.866025 0.5 0
    outer loop
      vertex 1.9 -0.558846 1.5
      vertex 2.8 1 0
      vertex 1.9 -0.558846 0
    endloop
  endfacet
  facet normal 0 1 0
    outer loop
      vertex 1.9 -0.558846 1.5
      vertex 1.9 -0.558846 0
      vertex 0.1 -0.558846 1.5
    endloop
  endfacet
  facet normal 0 1 -0
    outer loop
      vertex 0.1 -0.558846 1.5
      vertex 1.9 -0.558846 0
      vertex 0.1 -0.558846 0
    endloop
  endfacet
  facet normal 0.866025 -0.5 0
    outer loop
      vertex 0.1 64.5588 0
      vertex 0.1 64.5588 1.5
      vertex -0.8 63 1.5
    endloop
  endfacet
  facet normal 0.866025 -0.5 0
    outer loop
      vertex -0.8 63 0
      vertex 0.1 64.5588 0
      vertex -0.8 63 1.5
    endloop
  endfacet
  facet normal 0.866025 0.5 0
    outer loop
      vertex -0.8 63 1.5
      vertex 0.1 61.4412 1.5
      vertex 0.1 61.4412 0
    endloop
  endfacet
  facet normal 0.866025 0.5 0
    outer loop
      vertex -0.8 63 0
      vertex -0.8 63 1.5
      vertex 0.1 61.4412 0
    endloop
  endfacet
  facet normal 0 -1 0
    outer loop
      vertex 1.9 64.5588 0
      vertex 1.9 64.5588 1.5
      vertex 0.1 64.5588 1.5
    endloop
  endfacet
  facet normal -0 -1 -0
    outer loop
      vertex 0.1 64.5588 0
      vertex 1.9 64.5588 0
      vertex 0.1 64.5588 1.5
    endloop
  endfacet
  facet normal -0.866025 -0.5 0
    outer loop
      vertex 2.8 63 1.5
      vertex 1.9 64.5588 1.5
      vertex 2.8 63 0
    endloop
  endfacet
  facet normal -0.866025 -0.5 0
    outer loop
      vertex 2.8 63 0
      vertex 1.9 64.5588 1.5
      vertex 1.9 64.5588 0
    endloop
  endfacet
  facet normal -0.866025 0.5 0
    outer loop
      vertex 2.8 63 1.5
      vertex 2.8 63 0
      vertex 1.9 61.4412 1.5
    endloop
  endfacet
  facet normal -0.866025 0.5 0
    outer loop
      vertex 1.9 61.4412 1.5
      vertex 2.8 63 0
      vertex 1.9 61.4412 0
    endloop
  endfacet
  facet normal 0 1 0
    outer loop
      vertex 1.9 61.4412 1.5
      vertex 1.9 61.4412 0
      vertex 0.1 61.4412 1.5
    endloop
  endfacet
  facet normal 0 1 -0
    outer loop
      vertex 0.1 61.4412 1.5
      vertex 1.9 61.4412 0
      vertex 0.1 61.4412 0
    endloop
  endfacet
  facet normal 1 0 0
    outer loop
      vertex 10 55 0
      vertex 10 55 1.5
      vertex 10 10 1.5
    endloop
  endfacet
  facet normal 1 0 0
    outer loop
      vertex 10 10 0
      vertex 10 55 0
      vertex 10 10 1.5
    endloop
  endfacet
  facet normal 0 -1 0
    outer loop
      vertex 85 55 0
      vertex 85 55 1.5
      vertex 10 55 1.5
    endloop
  endfacet
  facet normal -0 -1 -0
    outer loop
      vertex 10 55 0
      vertex 85 55 0
      vertex 10 55 1.5
    endloop
  endfacet
  facet normal -1 0 0
    outer loop
      vertex 85 55 1.5
      vertex 85 55 0
      vertex 85 10 1.5
    endloop
  endfacet
  facet normal -1 0 0
    outer loop
      vertex 85 10 1.5
      vertex 85 55 0
      vertex 85 10 0
    endloop
  endfacet
  facet normal 0 1 0
    outer loop
      vertex 85 10 1.5
      vertex 85 10 0
      vertex 10 10 1.5
    endloop
  endfacet
  facet normal 0 1 -0
    outer loop
      vertex 10 10 1.5
      vertex 85 10 0
      vertex 10 10 0
    endloop
  endfacet
  facet normal 0.866025 -0.5 0
    outer loop
      vertex 92.1 2.55885 0
      vertex 92.1 2.55885 1.5
      vertex 91.2 1 1.5
    endloop
  endfacet
  facet normal 0.866025 -0.5 0
    outer loop
      vertex 91.2 1 0
      vertex 92.1 2.55885 0
      vertex 91.2 1 1.5
    endloop
  endfacet
  facet normal 0.866025 0.5 0
    outer loop
      vertex 91.2 1 1.5
      vertex 92.1 -0.558846 1.5
      vertex 92.1 -0.558846 0
    endloop
  endfacet
  facet normal 0.866025 0.5 0
    outer loop
      vertex 91.2 1 0
      vertex 91.2 1 1.5
      vertex 92.1 -0.558846 0
    endloop
  endfacet
  facet normal 0 -1 0
    outer loop
      vertex 93.9 2.55885 0
      vertex 93.9 2.55885 1.5
      vertex 92.1 2.55885 1.5
    endloop
  endfacet
  facet normal -0 -1 -0
    outer loop
      vertex 92.1 2.55885 0
      vertex 93.9 2.55885 0
      vertex 92.1 2.55885 1.5
    endloop
  endfacet
  facet normal -0.866025 -0.5 0
    outer loop
      vertex 94.8 1 1.5
      vertex 93.9 2.55885 1.5
      vertex 94.8 1 0
    endloop
  endfacet
  facet normal -0.866025 -0.5 0
    outer loop
      vertex 94.8 1 0
      vertex 93.9 2.55885 1.5
      vertex 93.9 2.55885 0
    endloop
  endfacet
  facet normal -0.866025 0.5 0
    outer loop
      vertex 94.8 1 1.5
      vertex 94.8 1 0
      vertex 93.9 -0.558846 1.5
    endloop
  endfacet
  facet normal -0.866025 0.5 0
    outer loop
      vertex 93.9 -0.558846 1.5
      vertex 94.8 1 0
      vertex 93.9 -0.558846 0
    endloop
  endfacet
  facet normal 0 1 0
    outer loop
      vertex 93.9 -0.558846 1.5
      vertex 93.9 -0.558846 0
      vertex 92.1 -0.558846 1.5
    endloop
  endfacet
  facet normal 0 1 -0
    outer loop
      vertex 92.1 -0.558846 1.5
      vertex 93.9 -0.558846 0
      vertex 92.1 -0.558846 0
    endloop
  endfacet
  facet normal 0.866025 -0.5 0
    outer loop
      vertex 92.1 64.5588 0
      vertex 92.1 64.5588 1.5
      vertex 91.2 63 1.5
    endloop
  endfacet
  facet normal 0.866025 -0.5 0
    outer loop
      vertex 91.2 63 0
      vertex 92.1 64.5588 0
      vertex 91.2 63 1.5
    endloop
  endfacet
  facet normal 0.866025 0.5 0
    outer loop
      vertex 91.2 63 1.5
      vertex 92.1 61.4412 1.5
      vertex 92.1 61.4412 0
    endloop
  endfacet
  facet normal 0.866025 0.5 0
    outer loop
      vertex 91.2 63 0
      vertex 91.2 63 1.5
      vertex 92.1 61.4412 0
    endloop
  endfacet
  facet normal 0 -1 0
    outer loop
      vertex 93.9 64.5588 0
      vertex 93.9 64.5588 1.5
      vertex 92.1 64.5588 1.5
    endloop
  endfacet
  facet normal -0 -1 -0
    outer loop
      vertex 92.1 64.5588 0
      vertex 93.9 64.5588 0
      vertex 92.1 64.5588 1.5
    endloop
  endfacet
  facet normal -0.866025 -0.5 0
    outer loop
      vertex 94.8 63 1.5
      vertex 93.9 64.5588 1.5
      vertex 94.8 63 0
    endloop
  endfacet
  facet normal -0.866025 -0.5 0
    outer loop
      vertex 94.8 63 0
      vertex 93.9 64.5588 1.5
      vertex 93.9 64.5588 0
    endloop
  endfacet
  facet normal -0.866025 0.5 0
    outer loop
      vertex 94.8 63 1.5
      vertex 94.8 63 0
      vertex 93.9 61.4412 1.5
    endloop
  endfacet
  facet normal -0.866025 0.5 0
    outer loop
      vertex 93.9 61.4412 1.5
      vertex 94.8 63 0
      vertex 93.9 61.4412 0
    endloop
  endfacet
  facet normal 0 1 0
    outer loop
      vertex 93.9 61.4412 1.5
      vertex 93.9 61.4412 0
      vertex 92.1 61.4412 1.5
    endloop
  endfacet
  facet normal 0 1 -0
    outer loop
      vertex 92.1 61.4412 1.5
      vertex 93.9 61.4412 0
      vertex 92.1 61.4412 0
    endloop
  endfacet
  facet normal 0 0 1
    outer loop
      vertex -1.99404 -1.65249 1.5
      vertex -0.41842 -2.74006 1.5
      vertex 1.48215 -2.97083 1.5
    endloop
  endfacet
  facet normal 0 0 1
    outer loop
      vertex 4.54182 -0.858893 1.5
      vertex -1.99404 -1.65249 1.5
      vertex 3.27226 -2.29194 1.5
    endloop
  endfacet
  facet normal -0 0 1
    outer loop
      vertex 3.27226 -2.29194 1.5
      vertex -1.99404 -1.65249 1.5
      vertex 1.48215 -2.97083 1.5
    endloop
  endfacet
  facet normal 0 0 1
    outer loop
      vertex 4.75352 0 1.5
      vertex -1.99404 -1.65249 1.5
      vertex 4.54182 -0.858893 1.5
    endloop
  endfacet
  facet normal 0 -0 1
    outer loop
      vertex 1.9 -0.558846 1.5
      vertex -1.99404 -1.65249 1.5
      vertex 4.75352 0 1.5
    endloop
  endfacet
  facet normal 0 0 1
    outer loop
      vertex 5.5 1 1.5
      vertex 4.75352 0 1.5
      vertex 5.28744 0 1.5
    endloop
  endfacet
  facet normal -0 0 1
    outer loop
      vertex 0.1 61.4412 1.5
      vertex -0.8 63 1.5
      vertex -0.41842 59.2599 1.5
    endloop
  endfacet
  facet normal 0 0 1
    outer loop
      vertex 92.1 2.55885 1.5
      vertex 5.28744 2 1.5
      vertex 88.627 2 1.5
    endloop
  endfacet
  facet normal 0 0 1
    outer loop
      vertex 88.5983 0.064397 1.5
      vertex 88.627 2 1.5
      vertex 88.5983 1.9356 1.5
    endloop
  endfacet
  facet normal 0 0 1
    outer loop
      vertex 88.627 0 1.5
      vertex 88.627 2 1.5
      vertex 88.5983 0.064397 1.5
    endloop
  endfacet
  facet normal -0 0 1
    outer loop
      vertex 89.1387 0 1.5
      vertex 88.627 2 1.5
      vertex 88.627 0 1.5
    endloop
  endfacet
  facet normal 0 0 1
    outer loop
      vertex 90.006 -1.65249 1.5
      vertex 88.627 2 1.5
      vertex 89.1387 0 1.5
    endloop
  endfacet
  facet normal 0 0 1
    outer loop
      vertex 91.5816 -2.74006 1.5
      vertex 88.627 2 1.5
      vertex 90.006 -1.65249 1.5
    endloop
  endfacet
  facet normal 0 0 1
    outer loop
      vertex 93.4821 -2.97083 1.5
      vertex 88.627 2 1.5
      vertex 91.5816 -2.74006 1.5
    endloop
  endfacet
  facet normal -0 -0 1
    outer loop
      vertex 92.1 -0.558846 1.5
      vertex 88.627 2 1.5
      vertex 93.4821 -2.97083 1.5
    endloop
  endfacet
  facet normal 0 0 1
    outer loop
      vertex 92.1 2.55885 1.5
      vertex 93.9 2.55885 1.5
      vertex 96.5418 2.85889 1.5
    endloop
  endfacet
  facet normal 0 -0 1
    outer loop
      vertex 94.8 1 1.5
      vertex 93.9 -0.558846 1.5
      vertex 96.5418 -0.858893 1.5
    endloop
  endfacet
  facet normal 0 -0 1
    outer loop
      vertex 95.2723 4.29193 1.5
      vertex 5.28744 2 1.5
      vertex 96.5418 2.85889 1.5
    endloop
  endfacet
  facet normal 0 -0 1
    outer loop
      vertex 95 4.39519 1.5
      vertex 5.28744 2 1.5
      vertex 95.2723 4.29193 1.5
    endloop
  endfacet
  facet normal 0 0 1
    outer loop
      vertex 95 4.9279 1.5
      vertex 5.28744 2 1.5
      vertex 95 4.39519 1.5
    endloop
  endfacet
  facet normal 0 -0 1
    outer loop
      vertex 94.3906 5.27975 1.5
      vertex 5.28744 2 1.5
      vertex 95 4.9279 1.5
    endloop
  endfacet
  facet normal 0 -0 1
    outer loop
      vertex 93 5.42591 1.5
      vertex 5.28744 2 1.5
      vertex 94.3906 5.27975 1.5
    endloop
  endfacet
  facet normal 0 -0 1
    outer loop
      vertex 85 10 1.5
      vertex 5.28744 2 1.5
      vertex 93 5.42591 1.5
    endloop
  endfacet
  facet normal 0 0 1
    outer loop
      vertex 95 59.0721 1.5
      vertex 93 58.5741 1.5
      vertex 94.3906 58.7202 1.5
    endloop
  endfacet
  facet normal 0 0 1
    outer loop
      vertex 95 59.6048 1.5
      vertex 93 58.5741 1.5
      vertex 95 59.0721 1.5
    endloop
  endfacet
  facet normal 0 0 1
    outer loop
      vertex 96.5418 61.1411 1.5
      vertex 93 58.5741 1.5
      vertex 95 59.6048 1.5
    endloop
  endfacet
  facet normal 0 0 1
    outer loop
      vertex 96.5418 61.1411 1.5
      vertex 95 59.6048 1.5
      vertex 95.2723 59.7081 1.5
    endloop
  endfacet
  facet normal 0 0 1
    outer loop
      vertex 10 55 1.5
      vertex 85 55 1.5
      vertex 93.9 61.4412 1.5
    endloop
  endfacet
  facet normal -0 0 1
    outer loop
      vertex 10 10 1.5
      vertex 10 55 1.5
      vertex 2 5.32081 1.5
    endloop
  endfacet
  facet normal 0 -0 1
    outer loop
      vertex 88.5983 63.9356 1.5
      vertex 88.5983 63 1.5
      vertex 93.4821 66.9708 1.5
    endloop
  endfacet
  facet normal 0 0 1
    outer loop
      vertex 2 58.6792 1.5
      vertex 4.41681 65 1.5
      vertex 2.8 63 1.5
    endloop
  endfacet
  facet normal 0 -0 1
    outer loop
      vertex 91.5816 66.7401 1.5
      vertex 89.6635 65 1.5
      vertex 93.4821 66.9708 1.5
    endloop
  endfacet
  facet normal 0 0 1
    outer loop
      vertex 2.8 63 1.5
      vertex 4.41681 65 1.5
      vertex 3.27226 66.2919 1.5
    endloop
  endfacet
  facet normal 0 -0 1
    outer loop
      vertex 89.6635 65 1.5
      vertex 88.5983 63.9356 1.5
      vertex 93.4821 66.9708 1.5
    endloop
  endfacet
  facet normal 0 0 1
    outer loop
      vertex 2 58.6792 1.5
      vertex 4.98767 65 1.5
      vertex 4.41681 65 1.5
    endloop
  endfacet
  facet normal 0 -0 1
    outer loop
      vertex 93.4821 66.9708 1.5
      vertex 88.5983 63 1.5
      vertex 95.2723 66.2919 1.5
    endloop
  endfacet
  facet normal 0 0 1
    outer loop
      vertex -0.41842 4.74006 1.5
      vertex -1.99404 3.65249 1.5
      vertex -1.99404 -1.65249 1.5
    endloop
  endfacet
  facet normal 0 0 1
    outer loop
      vertex 85 55 1.5
      vertex 93 58.5741 1.5
      vertex 96.5418 61.1411 1.5
    endloop
  endfacet
  facet normal 0 0 1
    outer loop
      vertex 92.1 -0.558846 1.5
      vertex 91.2 1 1.5
      vertex 88.627 2 1.5
    endloop
  endfacet
  facet normal 0 0 1
    outer loop
      vertex 85 10 1.5
      vertex 1.9 2.55885 1.5
      vertex 5.28744 2 1.5
    endloop
  endfacet
  facet normal 0 -0 1
    outer loop
      vertex -1.99404 65.6525 1.5
      vertex -1.99404 60.3475 1.5
      vertex -0.41842 66.7401 1.5
    endloop
  endfacet
  facet normal 0 -0 1
    outer loop
      vertex 1.9 61.4412 1.5
      vertex 0.529622 58.5247 1.5
      vertex 2 58.6792 1.5
    endloop
  endfacet
  facet normal 0 0 1
    outer loop
      vertex 1.9 -0.558846 1.5
      vertex 0.1 -0.558846 1.5
      vertex -1.99404 -1.65249 1.5
    endloop
  endfacet
  facet normal 0 0 1
    outer loop
      vertex -2.88377 63.9573 1.5
      vertex -1.99404 60.3475 1.5
      vertex -1.99404 65.6525 1.5
    endloop
  endfacet
  facet normal 0 0 1
    outer loop
      vertex 1.9 61.4412 1.5
      vertex 0 59.2091 1.5
      vertex 0 58.6967 1.5
    endloop
  endfacet
  facet normal 0 0 1
    outer loop
      vertex 10 55 1.5
      vertex 92.1 61.4412 1.5
      vertex 91.2 63 1.5
    endloop
  endfacet
  facet normal 0 0 1
    outer loop
      vertex 91.2 1 1.5
      vertex 92.1 2.55885 1.5
      vertex 88.627 2 1.5
    endloop
  endfacet
  facet normal 0 0 1
    outer loop
      vertex -1.99404 3.65249 1.5
      vertex -2.88377 1.95726 1.5
      vertex -1.99404 -1.65249 1.5
    endloop
  endfacet
  facet normal 0 0 1
    outer loop
      vertex 1.9 61.4412 1.5
      vertex 0.1 61.4412 1.5
      vertex -0.41842 59.2599 1.5
    endloop
  endfacet
  facet normal 0 0 1
    outer loop
      vertex 1.9 61.4412 1.5
      vertex -0.41842 59.2599 1.5
      vertex 0 59.2091 1.5
    endloop
  endfacet
  facet normal 0 0 1
    outer loop
      vertex 2.8 63 1.5
      vertex 1.9 61.4412 1.5
      vertex 2 58.6792 1.5
    endloop
  endfacet
  facet normal 0 -0 1
    outer loop
      vertex 85 55 1.5
      vertex 85 10 1.5
      vertex 93 58.5741 1.5
    endloop
  endfacet
  facet normal 0 -0 1
    outer loop
      vertex 0 4.79087 1.5
      vertex -1.99404 -1.65249 1.5
      vertex 0.529622 5.47535 1.5
    endloop
  endfacet
  facet normal 0 0 1
    outer loop
      vertex 0 4.79087 1.5
      vertex -0.41842 4.74006 1.5
      vertex -1.99404 -1.65249 1.5
    endloop
  endfacet
  facet normal 0 -0 1
    outer loop
      vertex 0 5.30326 1.5
      vertex 0 4.79087 1.5
      vertex 0.529622 5.47535 1.5
    endloop
  endfacet
  facet normal 0 0 1
    outer loop
      vertex -2.88377 0.042737 1.5
      vertex -1.99404 -1.65249 1.5
      vertex -2.88377 1.95726 1.5
    endloop
  endfacet
  facet normal 0 0 1
    outer loop
      vertex 0.529622 5.47535 1.5
      vertex -1.99404 -1.65249 1.5
      vertex -0.8 1 1.5
    endloop
  endfacet
  facet normal 0 -0 1
    outer loop
      vertex 0.529622 5.47535 1.5
      vertex 0.1 2.55885 1.5
      vertex 2 5.32081 1.5
    endloop
  endfacet
  facet normal 0 0 1
    outer loop
      vertex 0.529622 5.47535 1.5
      vertex -0.8 1 1.5
      vertex 0.1 2.55885 1.5
    endloop
  endfacet
  facet normal 0 0 1
    outer loop
      vertex -1.99404 60.3475 1.5
      vertex -0.41842 59.2599 1.5
      vertex -0.8 63 1.5
    endloop
  endfacet
  facet normal 0 0 1
    outer loop
      vertex 0.1 2.55885 1.5
      vertex 1.9 2.55885 1.5
      vertex 2 5.32081 1.5
    endloop
  endfacet
  facet normal 0 0 1
    outer loop
      vertex 85 10 1.5
      vertex 10 10 1.5
      vertex 1.9 2.55885 1.5
    endloop
  endfacet
  facet normal 0 0 1
    outer loop
      vertex 5.5 1 1.5
      vertex 1.9 -0.558846 1.5
      vertex 4.75352 0 1.5
    endloop
  endfacet
  facet normal 0 0 1
    outer loop
      vertex -0.8 63 1.5
      vertex 0.1 64.5588 1.5
      vertex -0.41842 66.7401 1.5
    endloop
  endfacet
  facet normal 0 0 1
    outer loop
      vertex -1.99404 60.3475 1.5
      vertex -0.8 63 1.5
      vertex -0.41842 66.7401 1.5
    endloop
  endfacet
  facet normal 0 0 1
    outer loop
      vertex -0.41842 66.7401 1.5
      vertex 0.1 64.5588 1.5
      vertex 1.48215 66.9708 1.5
    endloop
  endfacet
  facet normal 0 0 1
    outer loop
      vertex 10 55 1.5
      vertex 91.2 63 1.5
      vertex 88.5983 63 1.5
    endloop
  endfacet
  facet normal 0 0 1
    outer loop
      vertex 1.48215 66.9708 1.5
      vertex 1.9 64.5588 1.5
      vertex 3.27226 66.2919 1.5
    endloop
  endfacet
  facet normal -0 0 1
    outer loop
      vertex 5.28744 2 1.5
      vertex 1.9 2.55885 1.5
      vertex 2.8 1 1.5
    endloop
  endfacet
  facet normal 0 0 1
    outer loop
      vertex 1.9 61.4412 1.5
      vertex 0 58.6967 1.5
      vertex 0.529622 58.5247 1.5
    endloop
  endfacet
  facet normal 0 0 1
    outer loop
      vertex 1.9 64.5588 1.5
      vertex 2.8 63 1.5
      vertex 3.27226 66.2919 1.5
    endloop
  endfacet
  facet normal 0 0 1
    outer loop
      vertex 88.5983 63 1.5
      vertex 91.2 63 1.5
      vertex 92.1 64.5588 1.5
    endloop
  endfacet
  facet normal 0 -0 1
    outer loop
      vertex 5.5 63 1.5
      vertex 2 5.32081 1.5
      vertex 10 55 1.5
    endloop
  endfacet
  facet normal 0 0 1
    outer loop
      vertex 97 63 1.5
      vertex 85 55 1.5
      vertex 96.5418 61.1411 1.5
    endloop
  endfacet
  facet normal 0 0 1
    outer loop
      vertex 93 58.5741 1.5
      vertex 85 10 1.5
      vertex 93 5.42591 1.5
    endloop
  endfacet
  facet normal 0 0 1
    outer loop
      vertex -2.88377 62.0427 1.5
      vertex -1.99404 60.3475 1.5
      vertex -2.88377 63.9573 1.5
    endloop
  endfacet
  facet normal 0 -0 1
    outer loop
      vertex 2 5.32081 1.5
      vertex 1.9 2.55885 1.5
      vertex 10 10 1.5
    endloop
  endfacet
  facet normal 0 0 1
    outer loop
      vertex 92.1 64.5588 1.5
      vertex 93.9 64.5588 1.5
      vertex 95.2723 66.2919 1.5
    endloop
  endfacet
  facet normal 0 0 1
    outer loop
      vertex 96.5418 2.85889 1.5
      vertex 5.28744 2 1.5
      vertex 92.1 2.55885 1.5
    endloop
  endfacet
  facet normal 0 -0 1
    outer loop
      vertex 96.5418 2.85889 1.5
      vertex 93.9 2.55885 1.5
      vertex 97 1 1.5
    endloop
  endfacet
  facet normal 0 0 1
    outer loop
      vertex 93.9 2.55885 1.5
      vertex 94.8 1 1.5
      vertex 97 1 1.5
    endloop
  endfacet
  facet normal 0 0 1
    outer loop
      vertex 97 1 1.5
      vertex 94.8 1 1.5
      vertex 96.5418 -0.858893 1.5
    endloop
  endfacet
  facet normal -0 0 1
    outer loop
      vertex 96.5418 -0.858893 1.5
      vertex 93.9 -0.558846 1.5
      vertex 95.2723 -2.29194 1.5
    endloop
  endfacet
  facet normal -0 0 1
    outer loop
      vertex 95.2723 -2.29194 1.5
      vertex 92.1 -0.558846 1.5
      vertex 93.4821 -2.97083 1.5
    endloop
  endfacet
  facet normal 0 0 1
    outer loop
      vertex 88.5983 63 1.5
      vertex 92.1 64.5588 1.5
      vertex 95.2723 66.2919 1.5
    endloop
  endfacet
  facet normal 0 -0 1
    outer loop
      vertex 2.8 1 1.5
      vertex 1.9 -0.558846 1.5
      vertex 5.5 1 1.5
    endloop
  endfacet
  facet normal 0 -0 1
    outer loop
      vertex 95.2723 66.2919 1.5
      vertex 93.9 64.5588 1.5
      vertex 96.5418 64.8589 1.5
    endloop
  endfacet
  facet normal 0 -0 1
    outer loop
      vertex 96.5418 64.8589 1.5
      vertex 94.8 63 1.5
      vertex 97 63 1.5
    endloop
  endfacet
  facet normal 0 0 1
    outer loop
      vertex 10 55 1.5
      vertex 93.9 61.4412 1.5
      vertex 92.1 61.4412 1.5
    endloop
  endfacet
  facet normal 0 -0 1
    outer loop
      vertex 94.8 63 1.5
      vertex 93.9 61.4412 1.5
      vertex 97 63 1.5
    endloop
  endfacet
  facet normal 0 -0 1
    outer loop
      vertex 93.9 61.4412 1.5
      vertex 85 55 1.5
      vertex 97 63 1.5
    endloop
  endfacet
  facet normal 0 0 1
    outer loop
      vertex 0.1 64.5588 1.5
      vertex 1.9 64.5588 1.5
      vertex 1.48215 66.9708 1.5
    endloop
  endfacet
  facet normal 0 -0 1
    outer loop
      vertex 89.0722 65 1.5
      vertex 88.5983 63.9356 1.5
      vertex 89.6635 65 1.5
    endloop
  endfacet
  facet normal 0 -0 1
    outer loop
      vertex 90.006 65.6525 1.5
      vertex 89.6635 65 1.5
      vertex 91.5816 66.7401 1.5
    endloop
  endfacet
  facet normal 0 0 1
    outer loop
      vertex 2.8 1 1.5
      vertex 5.5 1 1.5
      vertex 5.28744 2 1.5
    endloop
  endfacet
  facet normal 0 0 1
    outer loop
      vertex 88.5983 63 1.5
      vertex 5.5 63 1.5
      vertex 10 55 1.5
    endloop
  endfacet
  facet normal 0 0 1
    outer loop
      vertex 2 58.6792 1.5
      vertex 5.11095 64.8303 1.5
      vertex 4.98767 65 1.5
    endloop
  endfacet
  facet normal 0 0 1
    outer loop
      vertex 2 58.6792 1.5
      vertex 5.5 63 1.5
      vertex 5.11095 64.8303 1.5
    endloop
  endfacet
  facet normal 0 -0 1
    outer loop
      vertex 2 58.6792 1.5
      vertex 2 5.32081 1.5
      vertex 5.5 63 1.5
    endloop
  endfacet
  facet normal 0 -0 1
    outer loop
      vertex 93.9 -0.558846 1.5
      vertex 92.1 -0.558846 1.5
      vertex 95.2723 -2.29194 1.5
    endloop
  endfacet
  facet normal 0 0 1
    outer loop
      vertex 93.9 64.5588 1.5
      vertex 94.8 63 1.5
      vertex 96.5418 64.8589 1.5
    endloop
  endfacet
  facet normal -0 0 1
    outer loop
      vertex 0.1 -0.558846 1.5
      vertex -0.8 1 1.5
      vertex -1.99404 -1.65249 1.5
    endloop
  endfacet
  facet normal -0.978148 0.207911 0
    outer loop
      vertex 5.5 1 3
      vertex 5.5 1 1.5
      vertex 5.28744 0 3
    endloop
  endfacet
  facet normal -0.978148 0.207911 0
    outer loop
      vertex 5.28744 0 3
      vertex 5.5 1 1.5
      vertex 5.28744 0 1.5
    endloop
  endfacet
  facet normal 0 -0 1
    outer loop
      vertex 5.5 1 3
      vertex 5.28744 0 3
      vertex 88.627 0 3
    endloop
  endfacet
  facet normal 0 0 1
    outer loop
      vertex 88.5983 1.9356 3
      vertex 5.5 1 3
      vertex 88.5983 0.064397 3
    endloop
  endfacet
  facet normal -0 -0 1
    outer loop
      vertex 88.5983 0.064397 3
      vertex 5.5 1 3
      vertex 88.627 0 3
    endloop
  endfacet
  facet normal 0 0 1
    outer loop
      vertex 88.627 2 3
      vertex 5.5 1 3
      vertex 88.5983 1.9356 3
    endloop
  endfacet
  facet normal 0 0 1
    outer loop
      vertex 5.28744 2 3
      vertex 5.5 1 3
      vertex 88.627 2 3
    endloop
  endfacet
  facet normal 0.913545 0.406737 0
    outer loop
      vertex 88.5983 0.064397 3
      vertex 88.627 0 3
      vertex 88.627 0 1.5
    endloop
  endfacet
  facet normal 0.913545 0.406737 0
    outer loop
      vertex 88.5983 0.064397 1.5
      vertex 88.5983 0.064397 3
      vertex 88.627 0 1.5
    endloop
  endfacet
  facet normal -0.5 -0.866026 -0
    outer loop
      vertex 95 4.9279 1.5
      vertex 95 4.9279 3
      vertex 94.3906 5.27975 3
    endloop
  endfacet
  facet normal -0.5 -0.866026 -0
    outer loop
      vertex 94.3906 5.27975 1.5
      vertex 95 4.9279 1.5
      vertex 94.3906 5.27975 3
    endloop
  endfacet
  facet normal 0 -0 1
    outer loop
      vertex 93 58.5741 3
      vertex 93 5.42591 3
      vertex 94.3906 5.27975 3
    endloop
  endfacet
  facet normal 0 0 1
    outer loop
      vertex 95 4.9279 3
      vertex 93 58.5741 3
      vertex 94.3906 5.27975 3
    endloop
  endfacet
  facet normal 0 0 1
    outer loop
      vertex 95 4.9279 3
      vertex 94.3906 58.7202 3
      vertex 93 58.5741 3
    endloop
  endfacet
  facet normal 0 0 1
    outer loop
      vertex 95 4.9279 3
      vertex 95 59.0721 3
      vertex 94.3906 58.7202 3
    endloop
  endfacet
  facet normal -0.5 0.866026 0
    outer loop
      vertex 95 59.0721 3
      vertex 95 59.0721 1.5
      vertex 94.3906 58.7202 3
    endloop
  endfacet
  facet normal -0.5 0.866026 0
    outer loop
      vertex 94.3906 58.7202 3
      vertex 95 59.0721 1.5
      vertex 94.3906 58.7202 1.5
    endloop
  endfacet
  facet normal 0.913545 -0.406737 0
    outer loop
      vertex 89.0722 65 1.5
      vertex 89.0722 65 3
      vertex 88.5983 63.9356 3
    endloop
  endfacet
  facet normal 0.913545 -0.406737 0
    outer loop
      vertex 88.5983 63.9356 1.5
      vertex 89.0722 65 1.5
      vertex 88.5983 63.9356 3
    endloop
  endfacet
  facet normal 0 0 1
    outer loop
      vertex 89.0722 65 3
      vertex 4.98767 65 3
      vertex 5.11095 64.8303 3
    endloop
  endfacet
  facet normal 0 0 1
    outer loop
      vertex 5.5 63 3
      vertex 89.0722 65 3
      vertex 5.11095 64.8303 3
    endloop
  endfacet
  facet normal 0 0 1
    outer loop
      vertex 5.5 63 3
      vertex 88.5983 63.9356 3
      vertex 89.0722 65 3
    endloop
  endfacet
  facet normal 0 0 1
    outer loop
      vertex 5.5 63 3
      vertex 88.5983 63 3
      vertex 88.5983 63.9356 3
    endloop
  endfacet
  facet normal -0.809017 -0.587785 0
    outer loop
      vertex 5.11095 64.8303 3
      vertex 4.98767 65 3
      vertex 5.11095 64.8303 1.5
    endloop
  endfacet
  facet normal -0.809017 -0.587785 0
    outer loop
      vertex 5.11095 64.8303 1.5
      vertex 4.98767 65 3
      vertex 4.98767 65 1.5
    endloop
  endfacet
  facet normal 0.309017 0.951056 -0
    outer loop
      vertex 0.529622 58.5247 3
      vertex 0.529622 58.5247 1.5
      vertex 0 58.6967 3
    endloop
  endfacet
  facet normal 0.309017 0.951056 -0
    outer loop
      vertex 0 58.6967 3
      vertex 0.529622 58.5247 1.5
      vertex 0 58.6967 1.5
    endloop
  endfacet
  facet normal 0 -0 1
    outer loop
      vertex 0 58.6967 3
      vertex 0 5.30326 3
      vertex 0.529622 5.47535 3
    endloop
  endfacet
  facet normal 0 0 1
    outer loop
      vertex 2 5.32081 3
      vertex 0 58.6967 3
      vertex 0.529622 5.47535 3
    endloop
  endfacet
  facet normal 0 0 1
    outer loop
      vertex 2 5.32081 3
      vertex 0.529622 58.5247 3
      vertex 0 58.6967 3
    endloop
  endfacet
  facet normal 0 0 1
    outer loop
      vertex 2 5.32081 3
      vertex 2 58.6792 3
      vertex 0.529622 58.5247 3
    endloop
  endfacet
  facet normal 0.309017 -0.951056 0
    outer loop
      vertex 0.529622 5.47535 1.5
      vertex 0.529622 5.47535 3
      vertex 0 5.30326 3
    endloop
  endfacet
  facet normal 0.309017 -0.951056 0
    outer loop
      vertex 0 5.30326 1.5
      vertex 0.529622 5.47535 1.5
      vertex 0 5.30326 3
    endloop
  endfacet
  facet normal -0.104529 -0.994522 -0
    outer loop
      vertex 2 5.32081 1.5
      vertex 2 5.32081 3
      vertex 0.529622 5.47535 3
    endloop
  endfacet
  facet normal -0.104529 -0.994522 -0
    outer loop
      vertex 0.529622 5.47535 1.5
      vertex 2 5.32081 1.5
      vertex 0.529622 5.47535 3
    endloop
  endfacet
  facet normal 1 0 0
    outer loop
      vertex 2 58.6792 1.5
      vertex 2 58.6792 3
      vertex 2 5.32081 3
    endloop
  endfacet
  facet normal 1 0 0
    outer loop
      vertex 2 5.32081 1.5
      vertex 2 58.6792 1.5
      vertex 2 5.32081 3
    endloop
  endfacet
  facet normal -0.104529 0.994522 0
    outer loop
      vertex 2 58.6792 3
      vertex 2 58.6792 1.5
      vertex 0.529622 58.5247 3
    endloop
  endfacet
  facet normal -0.104529 0.994522 0
    outer loop
      vertex 0.529622 58.5247 3
      vertex 2 58.6792 1.5
      vertex 0.529622 58.5247 1.5
    endloop
  endfacet
  facet normal -0.978148 -0.207911 0
    outer loop
      vertex 5.5 63 3
      vertex 5.11095 64.8303 3
      vertex 5.5 63 1.5
    endloop
  endfacet
  facet normal -0.978148 -0.207911 0
    outer loop
      vertex 5.5 63 1.5
      vertex 5.11095 64.8303 3
      vertex 5.11095 64.8303 1.5
    endloop
  endfacet
  facet normal 0 -1 0
    outer loop
      vertex 88.5983 63 1.5
      vertex 88.5983 63 3
      vertex 5.5 63 3
    endloop
  endfacet
  facet normal -0 -1 -0
    outer loop
      vertex 5.5 63 1.5
      vertex 88.5983 63 1.5
      vertex 5.5 63 3
    endloop
  endfacet
  facet normal 1 0 0
    outer loop
      vertex 88.5983 63.9356 1.5
      vertex 88.5983 63.9356 3
      vertex 88.5983 63 3
    endloop
  endfacet
  facet normal 1 0 0
    outer loop
      vertex 88.5983 63 1.5
      vertex 88.5983 63.9356 1.5
      vertex 88.5983 63 3
    endloop
  endfacet
  facet normal -0.104529 0.994522 0
    outer loop
      vertex 94.3906 58.7202 3
      vertex 94.3906 58.7202 1.5
      vertex 93 58.5741 3
    endloop
  endfacet
  facet normal -0.104529 0.994522 0
    outer loop
      vertex 93 58.5741 3
      vertex 94.3906 58.7202 1.5
      vertex 93 58.5741 1.5
    endloop
  endfacet
  facet normal -1 0 0
    outer loop
      vertex 93 58.5741 3
      vertex 93 58.5741 1.5
      vertex 93 5.42591 3
    endloop
  endfacet
  facet normal -1 0 0
    outer loop
      vertex 93 5.42591 3
      vertex 93 58.5741 1.5
      vertex 93 5.42591 1.5
    endloop
  endfacet
  facet normal -0.104529 -0.994522 -0
    outer loop
      vertex 94.3906 5.27975 1.5
      vertex 94.3906 5.27975 3
      vertex 93 5.42591 3
    endloop
  endfacet
  facet normal -0.104529 -0.994522 -0
    outer loop
      vertex 93 5.42591 1.5
      vertex 94.3906 5.27975 1.5
      vertex 93 5.42591 3
    endloop
  endfacet
  facet normal 1 0 0
    outer loop
      vertex 88.5983 1.9356 1.5
      vertex 88.5983 1.9356 3
      vertex 88.5983 0.064397 3
    endloop
  endfacet
  facet normal 1 0 0
    outer loop
      vertex 88.5983 0.064397 1.5
      vertex 88.5983 1.9356 1.5
      vertex 88.5983 0.064397 3
    endloop
  endfacet
  facet normal 0.913545 -0.406737 0
    outer loop
      vertex 88.627 2 1.5
      vertex 88.627 2 3
      vertex 88.5983 1.9356 3
    endloop
  endfacet
  facet normal 0.913545 -0.406737 0
    outer loop
      vertex 88.5983 1.9356 1.5
      vertex 88.627 2 1.5
      vertex 88.5983 1.9356 3
    endloop
  endfacet
  facet normal 0 1 0
    outer loop
      vertex 88.627 2 3
      vertex 88.627 2 1.5
      vertex 5.28744 2 3
    endloop
  endfacet
  facet normal 0 1 -0
    outer loop
      vertex 5.28744 2 3
      vertex 88.627 2 1.5
      vertex 5.28744 2 1.5
    endloop
  endfacet
  facet normal -0.978148 -0.207911 0
    outer loop
      vertex 5.5 1 3
      vertex 5.28744 2 3
      vertex 5.5 1 1.5
    endloop
  endfacet
  facet normal -0.978148 -0.207911 0
    outer loop
      vertex 5.5 1 1.5
      vertex 5.28744 2 3
      vertex 5.28744 2 1.5
    endloop
  endfacet
endsolid OpenSCAD_Model
